<?xml version="1.0" standalone="no"?>
<!DOCTYPE svg PUBLIC "-//W3C//DTD SVG 20010904//EN"
 "http://www.w3.org/TR/2001/REC-SVG-20010904/DTD/svg10.dtd">
<svg version="1.0" xmlns="http://www.w3.org/2000/svg"
 width="504.000000pt" height="504.000000pt" viewBox="0 0 504.000000 504.000000"
 preserveAspectRatio="xMidYMid meet">
<metadata>
Created by potrace 1.14, written by Peter Selinger 2001-2017
</metadata>
<g transform="translate(0.000000,504.000000) scale(0.100000,-0.100000)"
fill="#000000" stroke="none">
<path d="M2466 4643 c-2 -2 -37 -6 -77 -8 -41 -2 -94 -6 -119 -9 -25 -2 -76
-7 -115 -11 -38 -3 -82 -8 -97 -11 -15 -3 -42 -7 -60 -9 -18 -3 -45 -7 -60
-11 -24 -5 -78 -13 -115 -16 -7 -1 -13 -4 -13 -7 0 -3 -12 -6 -27 -7 -32 -1
-99 -12 -128 -22 -11 -3 -23 -7 -27 -8 -5 -1 -9 -2 -10 -4 -2 -1 -15 -4 -30
-6 -29 -5 -222 -60 -248 -71 -18 -8 -17 -7 -57 -17 -18 -4 -33 -12 -33 -17 0
-6 -4 -8 -10 -4 -5 3 -26 -2 -47 -11 -21 -9 -42 -17 -48 -18 -15 -4 -46 -16
-82 -32 -17 -8 -34 -14 -38 -14 -8 0 -133 -56 -155 -69 -8 -5 -44 -24 -80 -43
-36 -18 -71 -38 -78 -45 -7 -7 -20 -13 -28 -13 -8 0 -12 -4 -9 -10 3 -5 -3
-10 -14 -10 -11 0 -27 -10 -35 -22 -9 -12 -16 -18 -16 -13 0 6 -3 6 -8 0 -4
-6 -40 -35 -79 -64 -40 -30 -73 -59 -73 -63 0 -4 -4 -8 -10 -8 -13 0 -140
-126 -140 -140 0 -6 -4 -9 -8 -6 -5 3 -33 -28 -62 -67 -30 -40 -59 -75 -65
-79 -5 -4 -6 -8 -1 -8 5 0 2 -8 -7 -18 -21 -23 -77 -149 -79 -178 -1 -13 -5
-24 -9 -24 -21 0 -32 -226 -14 -308 28 -134 111 -304 177 -363 10 -9 18 -22
18 -28 0 -7 5 -9 10 -6 6 3 10 1 10 -4 0 -15 152 -164 217 -213 52 -40 54 -42
68 -141 2 -12 6 -33 9 -47 3 -13 8 -42 12 -64 3 -22 7 -43 9 -47 5 -7 17 -68
18 -86 0 -7 3 -13 7 -13 4 0 7 -8 7 -17 -1 -20 7 -52 29 -128 8 -27 16 -60 19
-73 2 -12 7 -27 10 -32 4 -6 9 -22 11 -37 3 -15 9 -32 15 -39 5 -6 6 -13 3
-16 -3 -4 3 -26 14 -50 10 -23 36 -90 56 -148 21 -58 41 -114 46 -125 4 -11
18 -45 30 -75 70 -173 158 -343 221 -425 101 -133 239 -241 434 -339 22 -11
42 -23 45 -26 5 -5 131 -58 180 -75 3 -1 12 -5 20 -8 8 -4 33 -11 55 -16 22
-5 65 -17 95 -25 30 -9 66 -18 80 -21 14 -3 36 -7 50 -11 14 -3 41 -7 60 -9
19 -3 47 -7 62 -10 175 -35 620 -35 784 0 12 3 39 7 60 11 21 3 57 10 79 15
22 5 51 12 64 15 14 3 28 7 31 9 4 2 21 7 38 10 18 3 54 13 80 21 26 9 52 18
57 19 25 5 67 23 178 74 49 23 93 41 98 41 5 0 9 4 9 8 0 5 12 15 28 23 64 33
173 113 233 171 141 137 231 281 330 528 7 19 14 37 14 40 0 3 6 15 13 28 7
12 10 22 6 22 -3 0 -2 6 3 13 6 6 19 37 29 67 10 30 23 58 29 62 5 4 7 8 3 8
-4 0 6 32 22 70 16 39 27 70 25 70 -2 0 5 21 15 46 11 25 22 55 25 67 2 12 16
65 30 117 14 52 27 108 30 125 4 16 9 32 13 35 4 3 8 21 9 40 2 46 21 121 35
137 6 7 7 13 2 13 -5 0 -4 4 2 8 6 4 21 30 35 57 13 28 26 52 30 55 3 3 11 20
18 37 8 18 18 33 23 33 5 0 7 4 3 9 -3 5 2 16 10 24 8 9 15 22 15 29 0 8 4 18
9 24 5 5 30 50 56 99 26 50 52 96 57 103 6 6 7 12 4 12 -4 0 0 7 8 16 9 8 14
19 11 24 -3 4 2 11 11 14 8 3 12 10 9 16 -3 5 -2 10 3 10 6 0 13 11 16 24 3
14 12 31 20 39 8 8 16 23 18 33 2 10 8 25 15 32 7 7 15 28 19 47 3 19 10 35
15 35 5 0 9 11 9 25 0 14 4 25 8 25 5 0 9 6 9 13 0 6 5 30 11 52 31 115 34
287 8 400 -3 11 -5 23 -5 28 0 4 -8 21 -16 37 -9 17 -13 30 -10 30 11 0 -86
177 -112 204 -13 14 -20 26 -16 26 4 0 -10 17 -32 39 -22 21 -47 47 -55 57 -9
10 -38 37 -64 59 -27 22 -56 47 -65 55 -51 47 -371 231 -371 213 0 -3 -6 -1
-12 5 -14 11 -133 61 -159 67 -9 2 -39 11 -65 20 -37 13 -176 54 -219 64 -3 1
-10 3 -17 5 -7 2 -40 9 -73 16 -33 6 -69 13 -80 16 -29 6 -145 26 -180 30 -50
6 -88 11 -135 17 -48 7 -149 17 -240 24 -71 5 -579 10 -584 6z"/>
</g>
</svg>
